<?xml version="1.0" encoding="UTF-8"?>
<svg id="Layer_2" xmlns="http://www.w3.org/2000/svg" version="1.1" viewBox="0 0 50.8 17.8">
  <!-- Generator: Adobe Illustrator 29.4.0, SVG Export Plug-In . SVG Version: 2.1.0 Build 152)  -->
  <defs>
    <style>
      .st0 {
        fill: #ef3e43;
      }

      .st1 {
        fill: #ef4549;
      }

      .st2 {
        fill: #ef4045;
      }

      .st3 {
        fill: #020202;
      }

      .st4 {
        fill: #ef4146;
      }
    </style>
  </defs>
  <path class="st2" d="M8.5,0c0,.1,0,.2,0,.4v6.1h0c0,.1,0,.1,0,.1h-1.4s0,0-.1,0V1.9s0,0,0,0c-.2,0-.4.1-.6.2-.2,0-.5.2-.7.3-.2.1-.4.2-.6.4-.6.4-1.1.8-1.5,1.3-.3.3-.6.7-.8,1.1-.2.3-.3.6-.5.9-.1.3-.2.5-.3.8,0,.1,0,.3-.1.4,0,0,0,.2,0,.3,0,.1,0,.3,0,.4,0,0,0,.2,0,.3,0,.3,0,.7,0,1,0,.2,0,.4,0,.6,0,.3,0,.6.2.8,0,.3.1.6.3.8.1.3.3.6.4.8.1.3.3.6.5.8.2.2.4.4.5.7,0,0,0,.1.1.2.3.3.7.6,1,.9.3.2.7.5,1.1.6.3.1.6.3,1,.4,0,0,.2,0,.2,0,0,0,0,0,0-.1v-6.3c0-.1,0-.2.2-.2.4,0,.9,0,1.3,0h0s0,0,0,0c0,0,0,0,0,0v8.1h0c0,.1,0,.1-.1.1-.1,0-.2,0-.4,0-.2,0-.3,0-.5,0-.3,0-.6-.1-.9-.2-.2,0-.3,0-.5-.1,0,0-.2,0-.3,0-.2,0-.5-.2-.7-.3-.2,0-.4-.2-.6-.3-.2-.1-.4-.2-.6-.4-.2-.2-.5-.3-.7-.5-.2-.2-.4-.4-.6-.6-.3-.3-.6-.6-.8-.9-.2-.3-.4-.6-.6-.9-.1-.2-.2-.4-.3-.6-.2-.4-.4-.8-.5-1.2,0-.3-.1-.5-.2-.8,0,0,0-.2,0-.3,0-.1,0-.2,0-.3,0-.2,0-.3,0-.5,0-.2,0-.3,0-.5,0-.3,0-.6,0-.9,0-.2,0-.3,0-.5,0-.1,0-.2,0-.4,0,0,0-.2,0-.3,0-.3.1-.6.2-.9,0-.1.1-.3.2-.4,0-.2.1-.4.2-.5.2-.4.4-.8.6-1.1.1-.2.3-.4.4-.6.2-.3.4-.5.6-.7.3-.3.6-.6.9-.8.2-.2.4-.3.6-.5.3-.2.5-.3.8-.5.2,0,.4-.2.6-.3.2,0,.5-.2.7-.3.3-.1.6-.2,1-.3.2,0,.4,0,.6,0,.2,0,.3,0,.5,0,.1,0,.2,0,.3,0,0,0,0,0,0,0h0Z"/>
  <path class="st3" d="M10.7,8c0,0,0,0-.2-.1-.3-.2-.6-.3-.9-.5,0,0,0,0,0-.1,0-.2,0-.4,0-.6V.1s0,0,0-.1c1.9,0,3.7.7,5.2,1.9,1.3,1,2.3,2.4,2.8,3.9,0,.2.1.4.2.6,0,0,0,0,0,.1,0,0,0,0,0,0h-1.5c0,0,0,0-.1,0,0-.1,0-.2-.1-.3-.7-1.7-2-3.1-3.6-3.9-.4-.2-.8-.3-1.2-.4,0,0-.1,0-.1,0v4.3s0,0,0,.1c0,0,0,0,0,0,0,0,.2.1.3.2,0,0,0,0,0,0,.1,0,.2.1.4.2.2,0,.3.2.5.3,0,0,0,0,0,0,.2.1.4.2.5.3,0,0,.1,0,.2.1,0,0,0,0,0,0,0,0,0,0,0,0,.1,0,.2.1.3.2.8.4,1.6.9,2.4,1.4.4.2.8.5,1.2.7.1,0,1,.5,1,.7,0,.1,0,.3-.1.4-.4,1.6-1.2,3.1-2.4,4.3-.8.8-1.8,1.5-2.9,1.9-.2,0-.4.1-.5.2-.2,0-.3.1-.5.1-.2,0-.5.1-.7.2-.1,0-.2,0-.3,0-.3,0-.6,0-.9,0,0,0,0,0,0,0,0,0,0,0,0,0v-6.4c.5,0,1,0,1.5,0,0,0,0,0,0,0,0,0,0,0,0,.1v4.5s0,0,0,0c0,0,0,0,.1,0,1.5-.5,2.8-1.4,3.8-2.6.5-.6.8-1.3,1.1-2,0,0,0,0,0,0h0s0,0,0,0c0,0-.1,0-.2-.1-1.4-.8-2.9-1.7-4.3-2.5,0,0-.1,0-.2,0,0,0,0,0,0,0,0,0,0,0,0,0-.2-.1-.5-.3-.7-.4,0,0,0,0,0,0,0,0,0,0,0,0"/>
  <path class="st3" d="M50,11.7c0,0,0,.2,0,.2-.2.7-.7,1.4-1.4,1.7-.3.1-.5.2-.8.2-.7,0-1.3,0-1.9-.4-.7-.4-1.1-1.2-1.2-2,0-.8.3-1.6.9-2.1.1-.1.3-.2.4-.3,0,0,.2,0,.2-.1,0,0,.2,0,.2,0,0,0,0,0,0,0,.1.2.2.4.3.6,0,0,.1.2.2.3,0,0,0,0,0,0-.1,0-.2,0-.3.1-.3.1-.4.3-.6.6-.2.3-.2.6-.1.9,0,.4.2.6.5.9.3.2.7.3,1.1.2.4,0,.8-.3,1-.7.1-.3.2-.6.1-.9,0-.5-.3-.8-.7-1,0,0,0,0-.1,0,0,0,0,0,0,0,0-.1.2-.3.2-.4,0-.1.1-.3.2-.4,0,0,0-.1.1-.2,0,0,0,0,.1,0,.4.2.8.4,1,.8.4.5.6,1.3.5,1.9"/>
  <path class="st3" d="M37.2,11.4v-2.4h0c0-.1,0-.1,0-.1,0,0,0,0,.1,0,.6,0,1.3,0,1.9,0,.8,0,1.5.3,2,1,.2.3.4.6.5,1,0,.3,0,.7,0,1,0,.5-.3.9-.6,1.3-.4.4-.8.6-1.3.8-.2,0-.3,0-.5,0-.7,0-1.4,0-2.1,0s-.1,0-.1-.1v-2.4M38.4,11.4h0v1.2c0,.1,0,.1.1.1.3,0,.5,0,.8,0,.3,0,.5,0,.7-.2.4-.4.6-.8.5-1.3,0-.3-.2-.6-.4-.8-.2-.2-.4-.3-.7-.3-.3,0-.6,0-.9,0-.1,0-.1,0-.1.1v1.2"/>
  <path class="st3" d="M31.7,8.9c0,0,0,0,.1,0h1c.1,0,.1,0,.1.1v2.5c0,.2,0,.5,0,.7.1.4.4.6.8.6,0,0,.2,0,.3,0,.5,0,.7-.3.9-.7,0-.2,0-.4,0-.6,0-.8,0-1.7,0-2.5s0,0,0,0c0,0,0-.1.1-.1,0,0,.1,0,.2,0h.8c.1,0,.1,0,.1.1,0,.9,0,1.9,0,2.8,0,.3,0,.7-.2,1-.1.3-.4.5-.6.7-.3.2-.6.3-.9.4-.4,0-.8,0-1.2,0-.6-.1-1-.5-1.3-1-.1-.2-.2-.4-.2-.6,0-.2,0-.4,0-.6,0-.9,0-1.7,0-2.6,0,0,0,0,0-.1"/>
  <path class="st3" d="M26.4,9.2c-.2.3-.3.7-.5,1-.1,0-.2,0-.3-.1-.2,0-.3,0-.5-.1-.2,0-.4,0-.6,0-.2,0-.4,0-.5.1-.1,0-.1.2,0,.4,0,.1.2.2.3.2,0,0,.2,0,.3,0,0,0,.2,0,.3,0,.2,0,.4,0,.6.2.4.1.8.3,1,.6.4.5.4,1.3,0,1.8-.2.2-.5.4-.7.5s-.6.1-.9.2c-.7,0-1.4-.1-2.1-.4,0,0,0,0,0,0,0,0,0-.1,0-.2.1-.3.3-.5.4-.8.5.2,1,.3,1.5.4.3,0,.9,0,.9-.4,0-.1,0-.2-.2-.3-.2-.1-.4-.2-.7-.2-.1,0-.3,0-.4-.1-.2,0-.5-.1-.7-.2-.2,0-.4-.2-.5-.4-.1-.2-.2-.4-.3-.6,0-.4,0-.8.2-1.1.2-.3.5-.5.9-.6.2,0,.3,0,.5,0,.3,0,.7,0,1,0,.3,0,.5,0,.8.2,0,0,.5.2.5.2"/>
  <path class="st3" d="M29.6,9.9v3.8c0,.1,0,.1-.1.1h-1c-.1,0-.1,0-.1-.1v-3.7c0-.1,0-.1-.1-.1h-1.2s0,0,0,0c0,0,0,0,0,0,0-.3,0-.6,0-.9,0,0,0,0,.1,0h1.4c.9,0,1.8,0,2.7,0,.1,0,.2,0,.2.2v.8c0,.1,0,.1-.1.1h-1.4"/>
  <path class="st3" d="M43.9,11.3v2.3s0,0,0,0c0,0,0,0,0,0-.4,0-.7,0-1.1,0,0,0-.1,0-.1-.1,0,0,0,0,0-.1v-4.6c0-.1,0-.1.1-.1h1c.1,0,.1,0,.1.1v2.4h0Z"/>
  <path class="st1" d="M47.9,9.2c0,.1,0,.2-.1.3-.1.1-.3.2-.4.2,0,0-.2,0-.3-.1,0,0-.1-.1-.1-.2,0-.2,0-.3,0-.4.2-.2.5-.2.7,0,.1,0,.1.2.1.3"/>
  <path class="st4" d="M22.5,3.3c0-.4.2-.8.4-1.1.2-.3.5-.5.8-.7.3-.2.7-.3,1.1-.4.3,0,.5,0,.8,0,.4,0,.8.2,1.1.4.2.1.3.3.5.4,0,0,0,0,0,0,0,0-.9.8-1,.8,0,0-.1-.1-.2-.2-.2-.2-.5-.4-.9-.4s-.7.1-1,.4c-.1.1-.2.3-.3.5,0,.2,0,.5,0,.8,0,.4.3.7.6.9.3.2.6.2.9.2.3,0,.6-.2.8-.5,0,0,0,0,0,0,0,0,0,0,0,0,.3.3.6.5,1,.8,0,0,0,0,0,0-.4.5-.9.7-1.6.8-.4,0-.8,0-1.2,0-.8-.2-1.4-.8-1.7-1.6-.2-.4-.2-.8-.1-1.2"/>
  <path class="st4" d="M30.3,1c0,0,.2,0,.2,0,1.1,0,2,.8,2.3,1.8,0,.1,0,.2,0,.3.1.8,0,1.7-.7,2.2-.1.1-.3.3-.5.4-.2.1-.4.2-.6.3-.2,0-.3,0-.5.1-.2,0-.5,0-.7,0-.2,0-.3,0-.5,0-.2,0-.4-.1-.6-.2-.1,0-.3-.2-.4-.3-.4-.3-.7-.7-.8-1.2-.2-.7-.2-1.4.2-2,.2-.3.3-.5.6-.7.5-.4,1.1-.6,1.8-.6M30.2,5c.1,0,.2,0,.3,0,.4-.1.8-.4,1-.9.2-.4,0-.9-.2-1.3-.3-.4-.9-.7-1.4-.5-.1,0-.3,0-.4.2-.7.5-.8,1.6-.2,2.2.2.2.6.4.9.4"/>
  <path class="st4" d="M33.7,1.1h.1c.7,0,1.4,0,2.1,0,.9,0,1.9.7,2.3,1.6,0,.1,0,.3.1.4.2,1-.2,2.2-1.1,2.7,0,0,0,0,0,0-.3.2-.6.3-.9.3-.3,0-.7,0-1,0-.3,0-.6,0-1,0s-.3,0-.4,0c-.1,0-.1,0-.1-.1h0V1.1M34.9,3.6v1.2c0,.1,0,.1.1.1.3,0,.6,0,.9,0,0,0,.2,0,.3,0,.2,0,.4-.3.6-.5.3-.4.3-.9.2-1.3-.2-.4-.5-.8-1-.9-.3,0-.6,0-.9,0s-.1,0-.1.1v1.2"/>
  <path class="st2" d="M43.3,2.2s0,0,0,0c0,0,0,0,0,0h-4.2s0,0,0,0c0,0,0,0,0-.1v-.8c0-.1,0-.1.1-.1h4.1c.1,0,.1,0,.1.1v.7h0c0,.2,0,.2,0,.2,0,0,0,0,0,0"/>
  <path class="st4" d="M42.9,3.1v1s0,0,0,0,0,0,0,0c0,0,0,0,0,0h-3.3s0,0,0,0c0,0,0,0,0,0v-1s0,0,0,0c0,0,0,0,0,0,0,0,0,0,0,0,1.1,0,2.2,0,3.3,0,0,0,0,0,0,0"/>
  <path class="st0" d="M39,6.1v-1h4.3v1s0,0,0,0c0,0,0,0,0,0,0,0,0,0,0,0-1.4,0-2.8,0-4.2,0,0,0,0,0,0,0"/>
  <path class="st3" d="M23.5,15.9h.8c0,.1,0,.2,0,.3s0,.2-.2.3c0,0-.2.1-.3.2s-.2,0-.3,0-.2,0-.3,0c-.1,0-.2,0-.3-.2,0,0-.1-.2-.2-.3s0-.2,0-.3,0-.2,0-.3c0-.1.1-.2.2-.3,0,0,.2-.1.3-.2.1,0,.2,0,.3,0s.2,0,.3,0,.2,0,.2.1.1.1.2.2l-.3.2c0,0,0-.1-.2-.2s-.2,0-.3,0-.2,0-.3,0-.1.1-.2.2c0,0,0,.2,0,.3s0,.2,0,.3.1.1.2.2c0,0,.2,0,.3,0s.1,0,.2,0,0,0,.1,0c0,0,0,0,0-.1s0,0,0-.1h-.5v-.3h0Z"/>
  <path class="st3" d="M26.3,15.1v1.3h.6v.3h-1v-1.6h.3Z"/>
  <path class="st3" d="M28.5,15.6c0-.1.1-.2.2-.3,0,0,.2-.1.3-.2s.2,0,.3,0,.2,0,.3,0c.1,0,.2,0,.3.2,0,0,.1.2.2.3s0,.2,0,.3,0,.2,0,.3c0,.1-.1.2-.2.3s-.2.1-.3.2-.2,0-.3,0-.2,0-.3,0c-.1,0-.2-.1-.3-.2,0,0-.1-.2-.2-.3,0-.1,0-.2,0-.3s0-.2,0-.3h0ZM28.9,16.2c0,0,.1.1.2.2s.2,0,.3,0,.2,0,.3,0,.1-.1.2-.2,0-.2,0-.3,0-.2,0-.3,0-.1-.2-.2-.2,0-.3,0-.2,0-.3,0-.1.1-.2.2,0,.2,0,.3,0,.2,0,.3h0Z"/>
  <path class="st3" d="M32.1,15.7h.3s0,0,.1,0,0,0,0,0c0,0,0,0,0-.1,0,0,0-.1,0-.1s0,0-.2,0h-.2v1.1h.2c0,0,.1,0,.1,0,0,0,0,0,.1,0,0,0,0,0,0-.1s0,0,0-.1c0,0,0,0,0,0s0,0,0,0,0,0-.1,0h-.3v-.2h.3c0,0,.2,0,.2,0,0,0,.1,0,.2,0,0,0,.1,0,.1.1s0,.1,0,.2,0,.2,0,.3c0,0-.1.1-.2.1,0,0-.2,0-.3,0h-.6v-1.6h.5c.1,0,.2,0,.3,0s.1,0,.2.1c0,0,0,.1,0,.2s0,.1,0,.2-.1.1-.2.1-.2,0-.3,0h-.3c0-.1,0-.1,0-.1Z"/>
  <path class="st3" d="M35.1,16.2h0c0,0-.2.5-.2.5h-.4l.8-1.7.8,1.7h-.4l-.2-.4h0c0,0-.2-.6-.2-.6l-.2.5h0ZM35,16.1h.8v.3s-.8,0-.8,0v-.3s0,0,0,0Z"/>
  <path class="st3" d="M38.1,15.1v1.3h.6v.3h-1v-1.6h.3Z"/>
</svg>