<svg width="64" height="50" viewBox="0 0 64 50" fill="none" xmlns="http://www.w3.org/2000/svg">
<path d="M5.68179 45.6898C1.98486 41.6904 0 37.2048 0 29.9335C0 17.1383 8.8188 5.6701 21.6432 0L24.8484 5.03766C12.8782 11.6327 10.5381 20.1908 9.60485 25.5868C11.5323 24.5704 14.0555 24.2158 16.5285 24.4498C23.0035 25.0603 28.1075 30.4745 28.1075 37.2048C28.1075 40.5983 26.7839 43.8528 24.428 46.2524C22.0721 48.6519 18.8768 50 15.5451 50C13.7025 49.9836 11.8816 49.5941 10.1883 48.8541C8.495 48.1142 6.96311 47.0385 5.68179 45.6898ZM41.5743 45.6898C37.8774 41.6904 35.8925 37.2048 35.8925 29.9335C35.8925 17.1383 44.7113 5.6701 57.5358 0L60.741 5.03766C48.7708 11.6327 46.4306 20.1908 45.4974 25.5868C47.4248 24.5704 49.9481 24.2158 52.4211 24.4498C58.8961 25.0603 64 30.4745 64 37.2048C64 40.5983 62.6765 43.8528 60.3206 46.2524C57.9647 48.6519 54.7694 50 51.4376 50C49.5951 49.9836 47.7742 49.5941 46.0809 48.8541C44.3876 48.1142 42.8557 47.0385 41.5743 45.6898Z" fill="#222222"/>
</svg>
