<svg width="163" height="58" viewBox="0 0 163 58" fill="none" xmlns="http://www.w3.org/2000/svg">
<path fill-rule="evenodd" clip-rule="evenodd" d="M81.374 57.036C126.18 57.036 162.503 44.3229 162.503 28.6405C162.503 12.9581 126.18 0.245117 81.374 0.245117C36.5672 0.245117 0.244141 12.9581 0.244141 28.6405C0.244141 44.3229 36.5672 57.036 81.374 57.036ZM26.1777 36.0409V16.4711H22.9605V36.0409H26.1777ZM28.1468 29.5176C28.1468 33.5157 30.8367 36.3566 34.9242 36.3566C39.0116 36.3566 41.7014 33.5157 41.7014 29.5176C41.7014 25.5194 39.0116 22.6787 34.9242 22.6787C30.8367 22.6787 28.1468 25.5194 28.1468 29.5176ZM48.9015 35.7779C45.2359 35.7779 42.7834 33.0423 42.7834 29.2545C42.7834 25.4406 45.2887 22.626 49.0069 22.626C50.932 22.626 52.567 23.4416 53.3581 24.8093L53.5427 23.0469H56.3907V35.3833C56.3907 39.6708 53.701 42.4326 49.4817 42.4326C45.8952 42.4326 43.2845 40.2232 42.8626 36.83H46.1062C46.2907 38.5397 47.6621 39.513 49.6662 39.513C51.9077 39.513 53.2527 38.0925 53.2527 35.9619V33.7525C52.4351 35.015 50.8002 35.7779 48.9015 35.7779ZM57.9828 29.5176C57.9828 33.5157 60.6727 36.3566 64.7602 36.3566C68.8476 36.3566 71.5374 33.5157 71.5374 29.5176C71.5374 25.5194 68.8476 22.6787 64.7602 22.6787C60.6727 22.6787 57.9828 25.5194 57.9828 29.5176ZM76.9443 18.4702C76.9443 19.5486 76.0741 20.3903 75.0192 20.3903C73.938 20.3903 73.1205 19.5486 73.1205 18.4702C73.1205 17.418 73.938 16.5762 75.0192 16.5762C76.0741 16.5762 76.9443 17.418 76.9443 18.4702ZM76.6278 23.0469V36.0409H73.4106V23.0469H76.6278ZM79.4464 42.0644H82.5846V34.2523C83.402 35.5937 85.1688 36.3828 87.1203 36.3828C90.9704 36.3828 93.2646 33.4368 93.2119 29.3861C93.1328 25.3091 90.7858 22.6524 87.0939 22.6524C85.1161 22.6524 83.3229 23.5204 82.5318 25.0197L82.3472 23.0469H79.4464V42.0644ZM99.25 36.3828C96.1385 36.3828 94.1343 34.7256 94.0289 32.1479H96.956C96.956 33.279 97.773 33.9366 99.197 33.9366C100.384 33.9366 101.36 33.4632 101.36 32.4373C101.36 31.7007 100.832 31.3062 99.989 31.0695L97.721 30.4908C95.2155 29.8332 94.2398 28.4391 94.2398 26.7557C94.2398 24.2832 96.3231 22.6524 99.118 22.6524C101.94 22.6524 103.865 24.2832 103.971 26.861H101.043C101.043 25.7299 100.252 25.046 99.039 25.046C97.879 25.046 97.167 25.6773 97.167 26.5716C97.167 27.4134 97.826 27.7553 98.802 28.0183L101.096 28.5707C103.232 29.0967 104.392 30.3593 104.392 32.2269C104.392 34.752 102.309 36.3828 99.25 36.3828ZM111.066 36.3828C112.832 36.3828 114.52 35.5674 115.285 34.3574L115.496 36.0409H118.502V23.0469H115.285V29.8596C115.285 32.2006 114.388 33.5157 112.279 33.5157C110.644 33.5157 109.51 32.7266 109.51 30.0437V23.0469H106.293V31.1747C106.293 34.2786 107.98 36.3828 111.066 36.3828ZM124.559 28.5707V36.0409H121.342V23.0469H124.295L124.454 24.52C125.219 23.3626 126.59 22.6524 128.119 22.6524C130.281 22.6524 131.705 23.5993 132.417 25.1249C133.051 23.5993 134.607 22.6524 136.584 22.6524C139.749 22.6524 141.41 24.5463 141.41 27.5449V36.0409H138.298V28.2813C138.298 26.4401 137.297 25.4669 135.741 25.4669C134.211 25.4669 132.998 26.4665 132.998 28.597V36.0409H129.859V28.2813C129.859 26.4401 128.858 25.4669 127.328 25.4669C125.799 25.4669 124.559 26.4665 124.559 28.5707Z" fill="#1A1919"/>
</svg>
