<svg width="224" height="169" viewBox="0 0 224 169" fill="none" xmlns="http://www.w3.org/2000/svg">
<g clip-path="url(#clip0_81_131)">
<mask id="mask0_81_131" style="mask-type:luminance" maskUnits="userSpaceOnUse" x="10" y="22" width="137" height="136">
<path d="M144.967 78.3555C138.48 41.5674 103.399 17.0034 66.6107 23.4901C29.8226 29.9768 5.25853 65.058 11.7453 101.846C18.232 138.634 53.3131 163.198 90.1012 156.711C126.889 150.225 151.453 115.144 144.967 78.3555Z" fill="white"/>
</mask>
<g mask="url(#mask0_81_131)">
<path d="M144.967 78.3555C138.48 41.5674 103.399 17.0034 66.6107 23.4901C29.8226 29.9768 5.25853 65.058 11.7453 101.846C18.232 138.634 53.3131 163.198 90.1012 156.711C126.889 150.225 151.453 115.144 144.967 78.3555Z" fill="#A2B3E4"/>
<path d="M-31.9329 47.9287L156.296 14.7389" stroke="#262624" stroke-width="2.48619"/>
<path d="M-30.063 58.5332L158.166 25.3434" stroke="#262624" stroke-width="2.48619"/>
<path d="M-28.1932 69.1377L160.036 35.9479" stroke="#262624" stroke-width="2.48619"/>
<path d="M-26.3233 79.7422L161.906 46.5524" stroke="#262624" stroke-width="2.48619"/>
<path d="M-24.4534 90.3457L163.775 57.1559" stroke="#262624" stroke-width="2.48619"/>
<path d="M-22.5836 100.95L165.645 67.7604" stroke="#262624" stroke-width="2.48619"/>
<path d="M-20.7137 111.555L167.515 78.3649" stroke="#262624" stroke-width="2.48619"/>
<path d="M-18.8439 122.159L169.385 88.9693" stroke="#262624" stroke-width="2.48619"/>
<path d="M-16.9741 132.764L171.255 99.5738" stroke="#262624" stroke-width="2.48619"/>
<path d="M-15.1042 143.368L173.125 110.178" stroke="#262624" stroke-width="2.48619"/>
<path d="M-13.2344 153.973L174.995 120.783" stroke="#262624" stroke-width="2.48619"/>
<path d="M-11.3646 164.577L176.864 131.387" stroke="#262624" stroke-width="2.48619"/>
<path d="M-9.49469 175.182L178.734 141.992" stroke="#262624" stroke-width="2.48619"/>
</g>
<path d="M211.577 66.6104C205.091 29.8223 170.009 5.25825 133.221 11.745C96.4333 18.2317 71.8692 53.3128 78.3559 90.1009C84.8426 126.889 119.924 151.453 156.712 144.966C193.5 138.48 218.064 103.398 211.577 66.6104Z" fill="#A2B3E4"/>
</g>
<defs>
<clipPath id="clip0_81_131">
<rect width="202.915" height="135.276" fill="white" transform="translate(0 35.2354) rotate(-10)"/>
</clipPath>
</defs>
</svg>
