<svg width="53" height="54" viewBox="0 0 53 54" fill="none" xmlns="http://www.w3.org/2000/svg">
<path fill-rule="evenodd" clip-rule="evenodd" d="M40.8333 24.0824C38.5259 24.0824 36.2703 23.3981 34.3517 22.1162C32.4331 20.8342 30.9378 19.0121 30.0547 16.8803C29.1717 14.7485 28.9407 12.4028 29.3908 10.1396C29.841 7.87653 30.9521 5.79773 32.5838 4.16612C34.2154 2.5345 36.2942 1.42336 38.5573 0.9732C40.8204 0.52304 43.1662 0.754078 45.298 1.6371C47.4298 2.52012 49.2519 4.01547 50.5338 5.93404C51.8158 7.85262 52.5 10.1082 52.5 12.4157C52.5 16.7129 48.6111 30.324 40.8333 53.249H35L40.8333 24.0824ZM11.6667 24.0824C9.35922 24.0824 7.10359 23.3981 5.18502 22.1162C3.26645 20.8342 1.7711 19.0121 0.888077 16.8803C0.00505495 14.7485 -0.225984 12.4028 0.224177 10.1396C0.674338 7.87653 1.78548 5.79773 3.41709 4.16612C5.0487 2.5345 7.12751 1.42336 9.39062 0.9732C11.6537 0.52304 13.9995 0.754078 16.1313 1.6371C18.2631 2.52012 20.0852 4.01547 21.3672 5.93404C22.6491 7.85262 23.3333 10.1082 23.3333 12.4157C23.3333 16.7129 19.4445 30.324 11.6667 53.249H5.83334L11.6667 24.0824Z" fill="#1A1919"/>
</svg>
