<svg width="56" height="56" viewBox="0 0 56 56" fill="none" xmlns="http://www.w3.org/2000/svg">
<path d="M25.6666 4.6665C35.1586 4.6665 42.994 11.7505 44.1794 20.9182L49.4294 29.1758C49.7746 29.7196 49.7046 30.5292 48.9044 30.8746L44.3334 32.8298V39.6666C44.3334 42.2448 42.245 44.3332 39.6666 44.3332H35.0024L35 51.3332H14V42.7138C14 39.9606 12.9827 37.3542 11.0973 35.0022C8.533 31.8056 7 27.7478 7 23.3332C7 13.0245 15.358 4.6665 25.6666 4.6665ZM25.6666 9.33318C17.934 9.33318 11.6667 15.6006 11.6667 23.3332C11.6667 26.5648 12.7587 29.6168 14.7374 32.0832C17.29 35.2658 18.6666 38.8896 18.6666 42.7138V46.6666H30.3334L30.338 39.6666H39.6666V29.7546L43.2834 28.2052L39.683 22.5468L39.55 21.5156C38.654 14.5856 32.7226 9.33318 25.6666 9.33318ZM25.6666 16.3332C26.9546 16.3332 28 17.3786 28 18.6666V20.9998H30.3334C31.6214 20.9998 32.6666 22.0452 32.6666 23.3332C32.6666 24.6212 31.6214 25.6666 30.3334 25.6666H28V27.9998C28 29.2878 26.9546 30.3332 25.6666 30.3332C24.3786 30.3332 23.3334 29.2878 23.3334 27.9998V25.6642L21 25.6666C19.712 25.6666 18.6666 24.6212 18.6666 23.3332C18.6666 22.0452 19.712 20.9998 21 20.9998L23.3334 20.9976V18.6666C23.3334 17.3786 24.3786 16.3332 25.6666 16.3332Z" fill="#1A1919"/>
</svg>
