<svg width="34" height="34" viewBox="0 0 34 34" fill="none" xmlns="http://www.w3.org/2000/svg">
<path d="M17.2812 0.75C17.8531 0.75 18.4016 0.977175 18.8059 1.38155C19.2103 1.78593 19.4375 2.33438 19.4375 2.90625V15.125H31.6562C32.2281 15.125 32.7766 15.3522 33.1809 15.7566C33.5853 16.1609 33.8125 16.7094 33.8125 17.2812C33.8125 17.8531 33.5853 18.4016 33.1809 18.8059C32.7766 19.2103 32.2281 19.4375 31.6562 19.4375H19.4375V31.6562C19.4375 32.2281 19.2103 32.7766 18.8059 33.1809C18.4016 33.5853 17.8531 33.8125 17.2812 33.8125C16.7094 33.8125 16.1609 33.5853 15.7566 33.1809C15.3522 32.7766 15.125 32.2281 15.125 31.6562V19.4375H2.90625C2.33438 19.4375 1.78593 19.2103 1.38155 18.8059C0.977175 18.4016 0.75 17.8531 0.75 17.2812C0.75 16.7094 0.977175 16.1609 1.38155 15.7566C1.78593 15.3522 2.33438 15.125 2.90625 15.125H15.125V2.90625C15.125 2.33438 15.3522 1.78593 15.7566 1.38155C16.1609 0.977175 16.7094 0.75 17.2812 0.75Z" fill="#1A1919"/>
</svg>
