<svg width="26" height="26" viewBox="0 0 26 26" fill="none" xmlns="http://www.w3.org/2000/svg">
<path d="M5.66908 8.25586H0.423096V24.985H5.66908V8.25586Z" fill="#1A1919"/>
<path d="M19.8598 7.89321C19.6664 7.86903 19.4609 7.85694 19.2554 7.84486C16.3181 7.72398 14.6621 9.46458 14.0819 10.214C13.9248 10.4195 13.8523 10.5404 13.8523 10.5404V8.30418H8.83594V25.0333H13.8523H14.0819C14.0819 23.329 14.0819 21.6367 14.0819 19.9324C14.0819 19.0137 14.0819 18.0951 14.0819 17.1764C14.0819 16.0402 13.9973 14.8314 14.5654 13.7919C15.0489 12.9216 15.9192 12.4865 16.8983 12.4865C19.7993 12.4865 19.8598 15.1095 19.8598 15.3512C19.8598 15.3633 19.8598 15.3754 19.8598 15.3754V25.1058H25.1057V14.1908C25.1057 10.4558 23.208 8.25583 19.8598 7.89321Z" fill="#1A1919"/>
<path d="M3.04605 6.09211C4.72834 6.09211 6.09212 4.72835 6.09212 3.04606C6.09212 1.36377 4.72834 0 3.04605 0C1.36376 0 0 1.36377 0 3.04606C0 4.72835 1.36376 6.09211 3.04605 6.09211Z" fill="#1A1919"/>
</svg>
