<svg width="233" height="42" viewBox="0 0 233 42" fill="none" xmlns="http://www.w3.org/2000/svg">
<path d="M20.65 29.5389H42.233L30.567 42H9.1L20.65 29.5389ZM56 14.7656H11.6605L0 27.2344H44.3395L56 14.7656ZM25.3969 0H46.9L35.2866 12.4611H13.767L25.3969 0Z" fill="white"/>
<path d="M218.913 40.1257C216.3 40.1257 213.93 39.5508 211.805 38.4009C209.714 37.2162 208.059 35.6133 206.84 33.5924C205.62 31.5714 205.01 29.3065 205.01 26.7977C205.01 24.2889 205.62 22.0414 206.84 20.0553C208.059 18.0692 209.714 16.5012 211.805 15.3513C213.896 14.1666 216.265 13.5742 218.913 13.5742C221.561 13.5742 223.931 14.1492 226.021 15.299C228.112 16.4489 229.767 18.0343 230.987 20.0553C232.206 22.0414 232.816 24.2889 232.816 26.7977C232.816 29.3065 232.206 31.5714 230.987 33.5924C229.767 35.6133 228.112 37.2162 226.021 38.4009C223.931 39.5508 221.561 40.1257 218.913 40.1257ZM218.913 32.8606C220.063 32.8606 221.074 32.6167 221.945 32.1289C222.816 31.6062 223.478 30.8919 223.931 29.986C224.419 29.0452 224.663 27.9824 224.663 26.7977C224.663 25.613 224.419 24.5851 223.931 23.714C223.443 22.808 222.764 22.1111 221.892 21.6233C221.056 21.1006 220.063 20.8393 218.913 20.8393C217.798 20.8393 216.805 21.1006 215.934 21.6233C215.063 22.1111 214.383 22.808 213.896 23.714C213.408 24.6199 213.164 25.6652 213.164 26.85C213.164 27.9998 213.408 29.0452 213.896 29.986C214.383 30.8919 215.063 31.6062 215.934 32.1289C216.805 32.6167 217.798 32.8606 218.913 32.8606Z" fill="white"/>
<path d="M193.055 39.5505V14.1489H201.052V39.5505H193.055ZM197.079 10.647C195.825 10.647 194.78 10.2289 193.943 9.39261C193.142 8.5215 192.741 7.47617 192.741 6.25661C192.741 5.00221 193.142 3.95688 193.943 3.12061C194.78 2.28434 195.825 1.86621 197.079 1.86621C198.334 1.86621 199.362 2.28434 200.163 3.12061C200.964 3.95688 201.365 5.00221 201.365 6.25661C201.365 7.47617 200.964 8.5215 200.163 9.39261C199.362 10.2289 198.334 10.647 197.079 10.647Z" fill="white"/>
<path d="M175.785 39.5508V3.64355H183.782V39.5508H175.785ZM170.036 20.9438V14.1492H189.531V20.9438H170.036Z" fill="white"/>
<path d="M151.704 40.0729C149.37 40.0729 147.279 39.498 145.432 38.3481C143.621 37.1982 142.175 35.6302 141.094 33.6441C140.049 31.658 139.526 29.3931 139.526 26.8494C139.526 24.3058 140.049 22.0409 141.094 20.0548C142.175 18.0686 143.621 16.5006 145.432 15.3508C147.279 14.2009 149.37 13.626 151.704 13.626C153.412 13.626 154.945 13.957 156.304 14.619C157.698 15.2811 158.83 16.2045 159.701 17.3892C160.572 18.539 161.06 19.8631 161.165 21.3614V32.3374C161.06 33.8358 160.572 35.1773 159.701 36.362C158.865 37.5118 157.75 38.4178 156.356 39.0798C154.962 39.7419 153.412 40.0729 151.704 40.0729ZM153.325 32.8601C155.032 32.8601 156.408 32.3026 157.454 31.1876C158.499 30.0377 159.022 28.5917 159.022 26.8494C159.022 25.6647 158.778 24.6194 158.29 23.7134C157.837 22.8075 157.175 22.1106 156.304 21.6228C155.468 21.1001 154.492 20.8388 153.377 20.8388C152.262 20.8388 151.269 21.1001 150.398 21.6228C149.562 22.1106 148.882 22.8075 148.359 23.7134C147.872 24.6194 147.628 25.6647 147.628 26.8494C147.628 27.9993 147.872 29.0272 148.359 29.9332C148.847 30.8391 149.527 31.5534 150.398 32.0761C151.269 32.5988 152.245 32.8601 153.325 32.8601ZM158.708 39.5502V32.7033L159.91 26.5358L158.708 20.3684V14.1486H166.548V39.5502H158.708Z" fill="white"/>
<path d="M119.504 39.5502V14.1486H127.5V39.5502H119.504ZM127.5 25.595L124.155 22.9817C124.817 20.0199 125.932 17.7202 127.5 16.0825C129.068 14.4448 131.246 13.626 134.034 13.626C135.253 13.626 136.316 13.8176 137.222 14.2009C138.163 14.5494 138.982 15.1069 139.679 15.8734L134.922 21.8841C134.574 21.5008 134.138 21.2046 133.616 20.9956C133.093 20.7865 132.501 20.682 131.839 20.682C130.515 20.682 129.452 21.1001 128.65 21.9364C127.884 22.7378 127.5 23.9574 127.5 25.595Z" fill="white"/>
<path d="M102.234 39.5508V3.64355H110.231V39.5508H102.234ZM96.4849 20.9438V14.1492H115.98V20.9438H96.4849Z" fill="white"/>
<path d="M79.9681 40.1253C76.9366 40.1253 74.3233 39.6375 72.1281 38.6619C69.9677 37.6514 67.9816 36.1356 66.1697 34.1147L71.5009 28.8357C72.6856 30.1947 73.9923 31.2574 75.4209 32.024C76.8843 32.7557 78.5743 33.1216 80.4907 33.1216C82.233 33.1216 83.5745 32.808 84.5153 32.1808C85.4909 31.5536 85.9787 30.6825 85.9787 29.5675C85.9787 28.557 85.6651 27.7381 85.0379 27.1109C84.4107 26.4837 83.5745 25.9436 82.5291 25.4907C81.5187 25.0377 80.3862 24.6021 79.1318 24.184C77.9123 23.7659 76.6927 23.2955 75.4731 22.7728C74.2536 22.2153 73.1211 21.5358 72.0758 20.7344C71.0653 19.8981 70.2465 18.8702 69.6193 17.6507C68.9921 16.3963 68.6785 14.8283 68.6785 12.9467C68.6785 10.6818 69.2186 8.73048 70.2987 7.09279C71.4138 5.4551 72.9469 4.21813 74.8982 3.38186C76.8495 2.51075 79.097 2.0752 81.6406 2.0752C84.2191 2.0752 86.5711 2.52817 88.6966 3.43413C90.857 4.34008 92.634 5.57706 94.0278 7.14506L88.6966 12.424C87.5816 11.2741 86.4491 10.4204 85.2993 9.86293C84.1843 9.30542 82.9124 9.02666 81.4838 9.02666C80.0552 9.02666 78.9227 9.30542 78.0865 9.86293C77.2502 10.3856 76.8321 11.1522 76.8321 12.1627C76.8321 13.1035 77.1457 13.87 77.7729 14.4624C78.4001 15.0199 79.2189 15.5077 80.2294 15.9259C81.2747 16.344 82.4072 16.7621 83.6267 17.1803C84.8811 17.5984 86.1181 18.0862 87.3377 18.6437C88.5572 19.2012 89.6723 19.9156 90.6827 20.7867C91.7281 21.6229 92.5643 22.7031 93.1915 24.0272C93.8187 25.3164 94.1323 26.9193 94.1323 28.8357C94.1323 32.355 92.8779 35.1252 90.3691 37.1461C87.8603 39.1323 84.3933 40.1253 79.9681 40.1253Z" fill="white"/>
</svg>
