<svg width="192" height="47" viewBox="0 0 192 47" fill="none" xmlns="http://www.w3.org/2000/svg">
<path d="M57.6875 32.9886H71.1335V28.9386H62.4665V13.6836H57.6875V32.9886Z" fill="#1A1919"/>
<path d="M79.0976 30.2886C77.1806 30.2886 76.1816 28.6146 76.1816 26.1036C76.1816 23.5926 77.1806 21.8916 79.0976 21.8916C81.0146 21.8916 82.0406 23.5926 82.0406 26.1036C82.0406 28.6146 81.0146 30.2886 79.0976 30.2886ZM79.1246 33.4206C83.5796 33.4206 86.4956 30.2616 86.4956 26.1036C86.4956 21.9456 83.5796 18.7866 79.1246 18.7866C74.6966 18.7866 71.7266 21.9456 71.7266 26.1036C71.7266 30.2616 74.6966 33.4206 79.1246 33.4206Z" fill="#1A1919"/>
<path d="M94.2111 37.7673C96.2631 37.7673 98.0721 37.3083 99.2871 36.2283C100.394 35.2293 101.123 33.7173 101.123 31.6383V19.1643H96.9111V20.6493H96.8571C96.0471 19.4883 94.8051 18.7593 92.9691 18.7593C89.5401 18.7593 87.1641 21.6213 87.1641 25.6713C87.1641 29.9103 90.0531 32.2323 93.1581 32.2323C94.8321 32.2323 95.8851 31.5573 96.6951 30.6393H96.8031V32.0163C96.8031 33.6903 96.0201 34.6623 94.1571 34.6623C92.6991 34.6623 91.9701 34.0413 91.7271 33.3123H87.4611C87.8931 36.2013 90.4041 37.7673 94.2111 37.7673ZM94.1841 28.9653C92.5371 28.9653 91.4571 27.6153 91.4571 25.5363C91.4571 23.4303 92.5371 22.0803 94.1841 22.0803C96.0201 22.0803 96.9921 23.6463 96.9921 25.5093C96.9921 27.4533 96.1011 28.9653 94.1841 28.9653Z" fill="#1A1919"/>
<path d="M109.781 30.2886C107.864 30.2886 106.865 28.6146 106.865 26.1036C106.865 23.5926 107.864 21.8916 109.781 21.8916C111.698 21.8916 112.724 23.5926 112.724 26.1036C112.724 28.6146 111.698 30.2886 109.781 30.2886ZM109.808 33.4206C114.263 33.4206 117.179 30.2616 117.179 26.1036C117.179 21.9456 114.263 18.7866 109.808 18.7866C105.38 18.7866 102.41 21.9456 102.41 26.1036C102.41 30.2616 105.38 33.4206 109.808 33.4206Z" fill="#1A1919"/>
<path d="M118.467 32.9886H122.868V19.1646H118.467V32.9886ZM118.467 17.2476H122.868V13.6836H118.467V17.2476Z" fill="#1A1919"/>
<path d="M124.777 37.5513H129.178V31.5573H129.232C130.096 32.7183 131.365 33.4203 133.147 33.4203C136.765 33.4203 139.168 30.5583 139.168 26.0763C139.168 21.9183 136.927 18.7593 133.255 18.7593C131.365 18.7593 130.015 19.5963 129.07 20.8383H128.989V19.1643H124.777V37.5513ZM132.013 30.0183C130.123 30.0183 129.043 28.4793 129.043 26.2383C129.043 23.9973 130.015 22.2963 131.932 22.2963C133.822 22.2963 134.713 23.8623 134.713 26.2383C134.713 28.5873 133.687 30.0183 132.013 30.0183Z" fill="#1A1919"/>
<path d="M146.33 33.4203C149.948 33.4203 152.621 31.8543 152.621 28.8303C152.621 25.2933 149.759 24.6723 147.329 24.2673C145.574 23.9433 144.008 23.8083 144.008 22.8363C144.008 21.9723 144.845 21.5673 145.925 21.5673C147.14 21.5673 147.977 21.9453 148.139 23.1873H152.189C151.973 20.4603 149.867 18.7593 145.952 18.7593C142.685 18.7593 139.985 20.2713 139.985 23.1873C139.985 26.4273 142.55 27.0753 144.953 27.4803C146.789 27.8043 148.463 27.9393 148.463 29.1813C148.463 30.0723 147.626 30.5583 146.303 30.5583C144.845 30.5583 143.927 29.8833 143.765 28.5063H139.607C139.742 31.5573 142.28 33.4203 146.33 33.4203Z" fill="#1A1919"/>
<path d="M158.6 33.3936C160.517 33.3936 161.732 32.6375 162.731 31.2875H162.812V32.9886H167.024V19.1646H162.623V26.8866C162.623 28.5336 161.705 29.6676 160.193 29.6676C158.789 29.6676 158.114 28.8306 158.114 27.3186V19.1646H153.74V28.2365C153.74 31.3146 155.414 33.3936 158.6 33.3936Z" fill="#1A1919"/>
<path d="M168.939 32.9883H173.34V25.2393C173.34 23.5923 174.15 22.4313 175.527 22.4313C176.85 22.4313 177.471 23.2953 177.471 24.7803V32.9883H181.872V25.2393C181.872 23.5923 182.655 22.4313 184.059 22.4313C185.382 22.4313 186.003 23.2953 186.003 24.7803V32.9883H190.404V23.9973C190.404 20.8923 188.838 18.7593 185.706 18.7593C183.924 18.7593 182.439 19.5153 181.359 21.1893H181.305C180.603 19.7043 179.226 18.7593 177.417 18.7593C175.419 18.7593 174.096 19.7043 173.232 21.1353H173.151V19.1643H168.939V32.9883Z" fill="#1A1919"/>
<path fill-rule="evenodd" clip-rule="evenodd" d="M22.6132 45.3637C35.0398 45.3637 45.1132 35.2901 45.1132 22.8637C45.1132 10.4374 35.0398 0.36377 22.6132 0.36377C10.1869 0.36377 0.113281 10.4374 0.113281 22.8637C0.113281 35.2901 10.1869 45.3637 22.6132 45.3637ZM26.0861 17.7479C28.004 15.8299 28.004 12.7203 26.0861 10.8023C24.1681 8.88427 21.0585 8.88427 19.1405 10.8023C17.2226 12.7203 17.2226 15.8299 19.1405 17.7479L22.6132 21.2207L26.0861 17.7479ZM27.7292 26.3366C29.6472 28.2546 32.7568 28.2546 34.6748 26.3366C36.5927 24.4186 36.5927 21.309 34.6748 19.391C32.7568 17.4731 29.6472 17.4731 27.7292 19.391L24.2564 22.8638L27.7292 26.3366ZM26.0861 34.9253C28.004 33.0073 28.004 29.8977 26.0861 27.9797L22.6132 24.5069L19.1405 27.9797C17.2226 29.8977 17.2226 33.0073 19.1405 34.9253C21.0585 36.8433 24.1681 36.8433 26.0861 34.9253ZM10.5517 26.3366C8.63379 24.4186 8.63379 21.309 10.5517 19.391C12.4698 17.4731 15.5794 17.4731 17.4974 19.391L20.9702 22.8638L17.4974 26.3366C15.5794 28.2546 12.4698 28.2546 10.5517 26.3366Z" fill="#1A1919"/>
</svg>
