<svg width="194" height="53" viewBox="0 0 194 53" fill="none" xmlns="http://www.w3.org/2000/svg">
<g clip-path="url(#clip0_29_198)">
<path d="M8.02994 10.3465V3.73499H-12.8684V49.1598H8.02994V42.5484C3.74891 42.5484 -0.356816 40.8519 -3.38388 37.8324C-6.41102 34.813 -8.11163 30.7177 -8.11163 26.4475C-8.11163 22.1772 -6.41102 18.0818 -3.38388 15.0624C-0.356816 12.0428 3.74891 10.3465 8.02994 10.3465Z" fill="#1A1919"/>
<path d="M8.03426 10.3456V42.5475C12.3153 42.5475 16.4211 40.8511 19.4482 37.8316C22.4753 34.812 24.1759 30.7167 24.1759 26.4466C24.1759 22.1764 22.4753 18.0809 19.4482 15.0614C16.4211 12.0419 12.3153 10.3456 8.03426 10.3456Z" fill="#1A1919"/>
<path d="M35.902 14.3905H40.5807V36.8695H35.902V14.3905Z" fill="#1A1919"/>
<path d="M43.2008 29.1686C43.2008 27.5513 43.6824 25.9705 44.584 24.6264C45.4858 23.2824 46.7673 22.2356 48.2662 21.6187C49.7651 21.002 51.4137 20.843 53.0033 21.162C54.5928 21.4809 56.0515 22.2634 57.1948 23.4102C58.3379 24.5572 59.1141 26.0167 59.4248 27.6041C59.7353 29.1914 59.5665 30.835 58.9397 32.3265C58.3127 33.8179 57.2561 35.0903 55.9034 35.982C54.5508 36.8738 52.9632 37.3449 51.3418 37.3358C50.2665 37.3441 49.2003 37.1383 48.2057 36.7301C47.2112 36.3221 46.3082 35.72 45.5498 34.9595C44.7916 34.1988 44.1934 33.2946 43.7899 32.3003C43.3867 31.3058 43.1864 30.2412 43.2008 29.1686ZM54.9288 29.1686C54.9104 28.4713 54.6864 27.7949 54.2847 27.2242C53.8828 26.6533 53.3215 26.2132 52.6701 25.959C52.0191 25.7047 51.3072 25.6477 50.6239 25.7949C49.9403 25.9421 49.3155 26.2871 48.8274 26.7868C48.3395 27.2862 48.0099 27.9182 47.8802 28.6036C47.7504 29.289 47.8261 29.9972 48.0978 30.6399C48.3695 31.2825 48.825 31.8313 49.4077 32.2168C49.9902 32.6026 50.6737 32.8084 51.3731 32.8088C51.8492 32.8181 52.322 32.7293 52.7622 32.5479C53.2022 32.3667 53.6001 32.0968 53.9309 31.7551C54.2617 31.4136 54.5182 31.0073 54.6846 30.5625C54.8511 30.1174 54.9235 29.6429 54.8977 29.1686H54.9288Z" fill="#1A1919"/>
<path d="M77.9923 21.4685V36.1071C77.9923 41.2719 73.9374 43.4654 69.8357 43.4654C68.389 43.5837 66.9377 43.297 65.6456 42.6375C64.3534 41.9778 63.2713 40.9715 62.5213 39.7318L66.467 37.4606C66.7868 38.1036 67.2954 38.6341 67.9251 38.9816C68.5548 39.3289 69.2757 39.4767 69.9916 39.4051C70.4478 39.4612 70.9107 39.416 71.3473 39.2728C71.784 39.1296 72.1833 38.8921 72.5171 38.5769C72.851 38.2618 73.1108 37.877 73.2781 37.45C73.4456 37.0232 73.5161 36.5645 73.4851 36.1071V34.6915C72.9407 35.35 72.2498 35.8727 71.4675 36.2184C70.6851 36.564 69.8327 36.723 68.978 36.6827C66.9099 36.6827 64.9265 35.8632 63.4641 34.4045C62.0017 32.9459 61.1801 30.9675 61.1801 28.9045C61.1801 26.8416 62.0017 24.8632 63.4641 23.4045C64.9265 21.9458 66.9099 21.1262 68.978 21.1262C69.8327 21.0859 70.6851 21.2449 71.4675 21.5907C72.2498 21.9363 72.9407 22.459 73.4851 23.1174V21.5618L77.9923 21.4685ZM73.4851 28.8578C73.5161 28.1136 73.3233 27.377 72.9315 26.7429C72.5396 26.1089 71.9666 25.6062 71.2859 25.2996C70.6053 24.993 69.8484 24.8965 69.1122 25.0225C68.3762 25.1486 67.6948 25.4912 67.1556 26.0067C66.6164 26.522 66.2442 27.1866 66.0867 27.9148C65.9291 28.643 65.9936 29.4014 66.2716 30.0927C66.5499 30.7841 67.029 31.3766 67.6473 31.7942C68.2659 32.2116 68.9954 32.4352 69.7421 32.4358C70.2295 32.4708 70.7187 32.4034 71.1782 32.2382C71.6378 32.0728 72.0577 31.8133 72.4103 31.476C72.763 31.1389 73.041 30.7316 73.2261 30.2806C73.4112 29.8297 73.4994 29.3449 73.4851 28.8578Z" fill="#1A1919"/>
<path d="M80.6304 29.1688C80.6304 27.5528 81.111 25.9732 82.0113 24.6297C82.9116 23.2862 84.1913 22.2395 85.6883 21.6219C87.1853 21.0041 88.8325 20.8433 90.4212 21.1597C92.0099 21.4761 93.4687 22.2555 94.6133 23.3992C95.7578 24.543 96.5363 25.9998 96.8504 27.585C97.1646 29.1703 97.0002 30.8129 96.3781 32.3049C95.756 33.7971 94.7041 35.0715 93.3556 35.9671C92.0072 36.8627 90.4225 37.3391 88.8024 37.3359C87.7252 37.3463 86.6563 37.1421 85.6592 36.7351C84.662 36.3281 83.7562 35.7268 82.9952 34.966C82.2339 34.2053 81.6327 33.3007 81.2266 32.3053C80.8206 31.3098 80.6179 30.2434 80.6304 29.1688ZM92.3583 29.1688C92.3399 28.4709 92.1154 27.7939 91.7129 27.2226C91.3106 26.6516 90.748 26.2115 90.0961 25.9578C89.444 25.704 88.7314 25.6479 88.0475 25.7964C87.3636 25.9448 86.7389 26.2914 86.2515 26.7926C85.7642 27.2936 85.4359 27.927 85.308 28.6134C85.18 29.2997 85.2578 30.0086 85.5318 30.6508C85.8058 31.2933 86.2639 31.8408 86.8485 32.2247C87.4331 32.6085 88.1181 32.8118 88.8181 32.8089C89.2942 32.8183 89.7671 32.7294 90.2072 32.5481C90.6473 32.3668 91.0452 32.097 91.376 31.7553C91.7068 31.4137 91.9633 31.0076 92.1297 30.5626C92.2961 30.1175 92.3686 29.6431 92.3428 29.1688H92.3583Z" fill="#1A1919"/>
<path d="M99.1431 17.3467C99.1431 16.7992 99.3059 16.2636 99.611 15.8083C99.9161 15.3529 100.35 14.998 100.857 14.7885C101.364 14.5788 101.922 14.524 102.461 14.6309C102.999 14.7377 103.494 15.0015 103.882 15.3888C104.27 15.776 104.535 16.2694 104.642 16.8064C104.749 17.3436 104.694 17.9003 104.484 18.4064C104.274 18.9123 103.918 19.3448 103.461 19.6491C103.005 19.9534 102.468 20.1157 101.919 20.1157C101.185 20.1077 100.484 19.8134 99.9651 19.2958C99.4463 18.7782 99.1512 18.0787 99.1431 17.3467ZM99.5954 21.4692H104.274V36.87H99.5954V21.4692Z" fill="#1A1919"/>
<path d="M124.3 29.1688C124.353 30.193 124.201 31.2177 123.855 32.1834C123.509 33.1491 122.975 34.037 122.284 34.796C121.592 35.5553 120.757 36.1703 119.826 36.6062C118.896 37.0421 117.888 37.2901 116.861 37.336C115.989 37.3939 115.115 37.2546 114.305 36.9287C113.495 36.6026 112.769 36.0985 112.182 35.4536V43.0607H107.503V21.4684H112.182V22.9152C112.77 22.2721 113.497 21.7704 114.307 21.4471C115.117 21.1236 115.99 20.9874 116.861 21.0483C117.884 21.0943 118.888 21.3408 119.815 21.7738C120.743 22.2067 121.575 22.8178 122.266 23.5717C122.957 24.3258 123.492 25.2082 123.841 26.1686C124.19 27.1289 124.345 28.1484 124.3 29.1688ZM119.621 29.1688C119.603 28.4463 119.371 27.7453 118.955 27.1537C118.539 26.562 117.957 26.1059 117.282 25.8429C116.607 25.5797 115.869 25.5212 115.161 25.6744C114.453 25.8276 113.806 26.186 113.301 26.7045C112.796 27.2231 112.456 27.8785 112.324 28.5892C112.191 29.2997 112.271 30.0334 112.554 30.6986C112.838 31.3637 113.312 31.9306 113.917 32.3282C114.522 32.7258 115.231 32.9363 115.956 32.9335C116.452 32.9545 116.948 32.8707 117.409 32.6874C117.871 32.5041 118.288 32.2257 118.634 31.8702C118.98 31.5147 119.247 31.0902 119.417 30.6248C119.587 30.1591 119.657 29.663 119.621 29.1688Z" fill="#1A1919"/>
<path d="M138.536 32.2482C138.536 35.7951 135.416 37.304 132.11 37.304C130.761 37.425 129.408 37.1399 128.223 36.4855C127.039 35.831 126.079 34.8373 125.466 33.6327L129.489 31.3615C129.649 31.9165 129.995 32.4001 130.469 32.7316C130.943 33.0629 131.517 33.2218 132.094 33.1816C133.201 33.1816 133.764 32.8393 133.764 32.2171C133.764 30.5215 126.168 31.4237 126.168 26.0878C126.168 22.7276 129.006 21.0475 132.219 21.0475C133.44 20.9929 134.653 21.2694 135.73 21.8474C136.806 22.4252 137.705 23.2832 138.333 24.33L134.309 26.4457C134.131 26.0443 133.84 25.7029 133.473 25.4628C133.105 25.2226 132.675 25.0939 132.235 25.0922C131.423 25.0922 130.94 25.4034 130.94 25.9478C130.94 27.7212 138.536 26.5545 138.536 32.2482Z" fill="#1A1919"/>
<path d="M155.49 21.4688V36.8696H150.811V35.4229C150.28 36.0633 149.604 36.5701 148.841 36.9025C148.078 37.2349 147.246 37.3834 146.413 37.3363C143.294 37.3363 140.628 35.1117 140.628 30.9582V21.4688H145.306V30.2581C145.269 30.6255 145.312 30.9965 145.435 31.3456C145.556 31.6945 145.751 32.0132 146.007 32.2795C146.264 32.5457 146.575 32.7532 146.92 32.8878C147.265 33.0221 147.634 33.0803 148.005 33.0582C149.689 33.0582 150.874 32.0627 150.874 29.947V21.4688H155.49Z" fill="#1A1919"/>
<path d="M182.002 27.4108V36.8692H177.322V27.8153C177.322 26.2596 176.589 25.2951 175.108 25.2951C173.626 25.2951 172.691 26.3685 172.691 28.1886V36.8692H168.013V27.8153C168.013 26.2596 167.279 25.2951 165.797 25.2951C164.316 25.2951 163.38 26.3685 163.38 28.1886V36.8692H158.702V21.4682H163.38V22.8838C163.866 22.2584 164.497 21.7632 165.223 21.4427C165.945 21.1223 166.74 20.9866 167.528 21.0482C168.319 21.007 169.109 21.1719 169.817 21.5264C170.525 21.8809 171.128 22.4131 171.568 23.0706C172.083 22.3835 172.763 21.8379 173.546 21.4843C174.327 21.1305 175.188 20.9805 176.043 21.0482C179.693 21.0482 182.002 23.5684 182.002 27.4108Z" fill="#1A1919"/>
<path d="M185.934 21.3743C187.828 21.3743 189.365 19.8421 189.365 17.952C189.365 16.0619 187.828 14.5295 185.934 14.5295C184.039 14.5295 182.502 16.0619 182.502 17.952C182.502 19.8421 184.039 21.3743 185.934 21.3743Z" fill="#1A1919"/>
</g>
<defs>
<clipPath id="clip0_29_198">
<rect width="194" height="53" fill="white"/>
</clipPath>
</defs>
</svg>
