<svg width="201" height="40" viewBox="0 0 201 40" fill="none" xmlns="http://www.w3.org/2000/svg">
<g clip-path="url(#clip0_29_212)">
<mask id="mask0_29_212" style="mask-type:luminance" maskUnits="userSpaceOnUse" x="0" y="0" width="201" height="40">
<path d="M200.423 0H0.138306V40H200.423V0Z" fill="white"/>
</mask>
<g mask="url(#mask0_29_212)">
<path d="M60.3145 30.2972V9.93726H64.1593V26.807H73.4802V30.2972H60.3145Z" fill="#1A1919"/>
<path d="M81.7812 30.7055C80.3442 30.7055 79.0531 30.4146 77.9079 29.8328C76.762 29.2512 75.8593 28.4077 75.199 27.3025C74.5388 26.1972 74.2083 24.869 74.2083 23.3177V22.8523C74.2083 21.3011 74.5388 19.9728 75.199 18.8676C75.8593 17.7623 76.762 16.9188 77.9079 16.3371C79.0531 15.7555 80.3442 15.4646 81.7812 15.4646C83.2183 15.4646 84.5094 15.7555 85.6553 16.3371C86.8012 16.9188 87.7039 17.7623 88.3642 18.8676C89.0244 19.9728 89.3542 21.3011 89.3542 22.8523V23.3177C89.3542 24.869 89.0244 26.1972 88.3642 27.3025C87.7039 28.4077 86.8012 29.2512 85.6553 29.8328C84.5094 30.4146 83.2183 30.7055 81.7812 30.7055ZM81.7812 27.4478C82.9079 27.4478 83.8399 27.0891 84.5774 26.3717C85.3156 25.6348 85.6847 24.5877 85.6847 23.2305V22.9396C85.6847 21.5822 85.3156 20.5448 84.5774 19.8273C83.8592 19.0906 82.9272 18.7221 81.7812 18.7221C80.6554 18.7221 79.7233 19.0906 78.9851 19.8273C78.2477 20.5448 77.8786 21.5822 77.8786 22.9396V23.2305C77.8786 24.5877 78.2477 25.6348 78.9851 26.3717C79.7233 27.0891 80.6554 27.4478 81.7812 27.4478Z" fill="#1A1919"/>
<path d="M90.7318 23.1432V22.6778C90.7318 21.1653 91.0322 19.8758 91.6345 18.8093C92.2368 17.7236 93.0329 16.8995 94.0229 16.3371C95.0329 15.7555 96.1295 15.4646 97.314 15.4646C98.6345 15.4646 99.6345 15.6972 100.315 16.1626C100.994 16.628 101.489 17.1127 101.8 17.6168H102.324V15.8717H105.936V32.8577C105.936 33.8467 105.644 34.632 105.062 35.2137C104.479 35.8148 103.703 36.1153 102.732 36.1153H93.0615V32.916H101.451C101.994 32.916 102.266 32.6251 102.266 32.0433V28.2913H101.742C101.547 28.6016 101.275 28.9215 100.926 29.2512C100.577 29.5613 100.111 29.8232 99.5279 30.0365C98.9456 30.2497 98.2074 30.3565 97.314 30.3565C96.1295 30.3565 95.0329 30.0752 94.0229 29.513C93.0329 28.9312 92.2368 28.1071 91.6345 27.0406C91.0322 25.9548 90.7318 24.6556 90.7318 23.1432ZM98.3627 27.157C99.4893 27.157 100.431 26.7982 101.188 26.0808C101.946 25.3633 102.324 24.3551 102.324 23.056V22.7651C102.324 21.4465 101.946 20.4382 101.188 19.7401C100.451 19.0227 99.5086 18.664 98.3627 18.664C97.2368 18.664 96.2947 19.0227 95.5379 19.7401C94.7804 20.4382 94.4013 21.4465 94.4013 22.7651V23.056C94.4013 24.3551 94.7804 25.3633 95.5379 26.0808C96.2947 26.7982 97.2368 27.157 98.3627 27.157Z" fill="#1A1919"/>
<path d="M115.569 30.7055C114.132 30.7055 112.84 30.4146 111.694 29.8328C110.549 29.2512 109.646 28.4077 108.986 27.3025C108.325 26.1972 107.996 24.869 107.996 23.3177V22.8523C107.996 21.3011 108.325 19.9728 108.986 18.8676C109.646 17.7623 110.549 16.9188 111.694 16.3371C112.84 15.7555 114.132 15.4646 115.569 15.4646C117.006 15.4646 118.297 15.7555 119.443 16.3371C120.588 16.9188 121.491 17.7623 122.151 18.8676C122.812 19.9728 123.141 21.3011 123.141 22.8523V23.3177C123.141 24.869 122.812 26.1972 122.151 27.3025C121.491 28.4077 120.588 29.2512 119.443 29.8328C118.297 30.4146 117.006 30.7055 115.569 30.7055ZM115.569 27.4478C116.694 27.4478 117.627 27.0891 118.365 26.3717C119.102 25.6348 119.471 24.5877 119.471 23.2305V22.9396C119.471 21.5822 119.102 20.5448 118.365 19.8273C117.646 19.0906 116.714 18.7221 115.569 18.7221C114.442 18.7221 113.51 19.0906 112.772 19.8273C112.034 20.5448 111.665 21.5822 111.665 22.9396V23.2305C111.665 24.5877 112.034 25.6348 112.772 26.3717C113.51 27.0891 114.442 27.4478 115.569 27.4478Z" fill="#1A1919"/>
<path d="M125.219 30.297V15.8706H128.889V30.297H125.219ZM127.054 14.1837C126.393 14.1837 125.831 13.9703 125.364 13.5437C124.918 13.1172 124.694 12.5548 124.694 11.8568C124.694 11.1587 124.918 10.5964 125.364 10.1698C125.831 9.74319 126.393 9.52991 127.054 9.52991C127.734 9.52991 128.297 9.74319 128.743 10.1698C129.189 10.5964 129.414 11.1587 129.414 11.8568C129.414 12.5548 129.189 13.1172 128.743 13.5437C128.297 13.9703 127.734 14.1837 127.054 14.1837Z" fill="#1A1919"/>
<path d="M131.645 36.1153V15.8717H135.257V17.6168H135.781C136.11 17.0546 136.625 16.5601 137.324 16.1335C138.023 15.6876 139.023 15.4646 140.325 15.4646C141.489 15.4646 142.567 15.7555 143.557 16.3371C144.548 16.8995 145.344 17.7332 145.945 18.8385C146.548 19.9437 146.849 21.2817 146.849 22.8523V23.3177C146.849 24.8883 146.548 26.2262 145.945 27.3315C145.344 28.4367 144.548 29.2802 143.557 29.862C142.567 30.4242 141.489 30.7055 140.325 30.7055C139.451 30.7055 138.713 30.5988 138.111 30.3855C137.528 30.1916 137.053 29.9395 136.684 29.6292C136.335 29.2996 136.053 28.97 135.839 28.6403H135.314V36.1153H131.645ZM139.217 27.506C140.364 27.506 141.305 27.1473 142.043 26.4298C142.799 25.693 143.179 24.6266 143.179 23.2305V22.9396C143.179 21.5435 142.799 20.4867 142.043 19.7692C141.285 19.0323 140.344 18.664 139.217 18.664C138.092 18.664 137.149 19.0323 136.392 19.7692C135.634 20.4867 135.257 21.5435 135.257 22.9396V23.2305C135.257 24.6266 135.634 25.693 136.392 26.4298C137.149 27.1473 138.092 27.506 139.217 27.506Z" fill="#1A1919"/>
<path d="M154.909 30.7055C153.025 30.7055 151.481 30.2982 150.277 29.4838C149.074 28.6695 148.346 27.506 148.093 25.9936L151.471 25.121C151.608 25.7997 151.831 26.3328 152.142 26.7207C152.472 27.1085 152.869 27.3897 153.337 27.5642C153.821 27.7193 154.345 27.7968 154.909 27.7968C155.764 27.7968 156.394 27.6515 156.801 27.3606C157.209 27.0503 157.414 26.6722 157.414 26.2262C157.414 25.7802 157.219 25.441 156.831 25.2082C156.442 24.9562 155.821 24.7526 154.967 24.5975L154.151 24.452C153.141 24.2581 152.22 23.9963 151.385 23.6667C150.549 23.3177 149.879 22.8426 149.374 22.2415C148.87 21.6405 148.617 20.8648 148.617 19.9147C148.617 18.4797 149.142 17.3842 150.191 16.628C151.239 15.8523 152.618 15.4646 154.327 15.4646C155.937 15.4646 157.279 15.8232 158.346 16.5407C159.414 17.2582 160.113 18.1986 160.443 19.3621L157.035 20.4091C156.88 19.6723 156.56 19.1487 156.074 18.8385C155.607 18.5282 155.025 18.3731 154.327 18.3731C153.627 18.3731 153.093 18.4992 152.724 18.7512C152.355 18.984 152.171 19.3136 152.171 19.7401C152.171 20.2055 152.365 20.5546 152.753 20.7872C153.141 21.0005 153.666 21.1653 154.327 21.2817L155.141 21.4271C156.229 21.621 157.209 21.8828 158.083 22.2125C158.977 22.5227 159.676 22.9783 160.181 23.5795C160.704 24.1612 160.967 24.9562 160.967 25.9645C160.967 27.477 160.414 28.6501 159.307 29.4838C158.22 30.2982 156.754 30.7055 154.909 30.7055Z" fill="#1A1919"/>
<path d="M168.376 30.5298C167.25 30.5298 166.26 30.2777 165.405 29.7735C164.57 29.25 163.92 28.5325 163.454 27.6212C162.988 26.7098 162.755 25.6628 162.755 24.48V15.8706H166.425V24.189C166.425 25.275 166.687 26.0893 167.211 26.6323C167.755 27.1752 168.522 27.4467 169.512 27.4467C170.639 27.4467 171.512 27.0783 172.133 26.3415C172.756 25.5852 173.066 24.538 173.066 23.2002V15.8706H176.736V30.297H173.123V28.4065H172.6C172.367 28.8913 171.929 29.3663 171.29 29.8317C170.649 30.297 169.678 30.5298 168.376 30.5298Z" fill="#1A1919"/>
<path d="M179.51 30.2981V15.8716H183.122V17.4422H183.646C183.899 16.9574 184.317 16.5406 184.899 16.1916C185.482 15.8231 186.248 15.6389 187.2 15.6389C188.229 15.6389 189.055 15.8426 189.676 16.2497C190.297 16.6376 190.773 17.1513 191.103 17.7913H191.627C191.958 17.1708 192.424 16.6569 193.026 16.2497C193.628 15.8426 194.481 15.6389 195.588 15.6389C196.482 15.6389 197.288 15.8328 198.006 16.2207C198.744 16.5891 199.327 17.1611 199.754 17.9367C200.201 18.6929 200.423 19.6527 200.423 20.8162V30.2981H196.753V21.0779C196.753 20.2829 196.549 19.6916 196.142 19.3037C195.735 18.8966 195.161 18.6929 194.424 18.6929C193.589 18.6929 192.938 18.9643 192.472 19.5073C192.026 20.0308 191.803 20.7871 191.803 21.7759V30.2981H188.132V21.0779C188.132 20.2829 187.929 19.6916 187.52 19.3037C187.112 18.8966 186.54 18.6929 185.802 18.6929C184.966 18.6929 184.316 18.9643 183.85 19.5073C183.404 20.0308 183.18 20.7871 183.18 21.7759V30.2981H179.51Z" fill="#1A1919"/>
<path d="M48.6835 19.3909C48.6835 14.2481 46.6376 9.31593 42.9959 5.67945C39.3542 2.04296 34.4151 6.74394e-07 29.265 0C24.115 -6.74392e-07 19.1758 2.04296 15.5341 5.67945C11.8925 9.31593 9.84656 14.2481 9.84656 19.3909H15.9149C17.9258 19.3909 19.494 17.7081 20.2305 15.8396C20.7141 14.6129 21.4479 13.4855 22.3995 12.5351C24.2203 10.7169 26.69 9.69543 29.265 9.69543C31.84 9.69543 34.3097 10.7169 36.1306 12.5351C37.9514 14.3534 38.9742 16.8195 38.9742 19.3909H48.6835Z" fill="#1A1919"/>
<path d="M37.497 26.8109C38.4728 24.4582 38.9752 21.9367 38.9752 19.3904H48.6834C48.6834 30.0996 39.9894 38.7811 29.2649 38.7811C27.5854 38.7811 25.9555 38.5682 24.4013 38.168C25.2807 37.9417 26.145 37.6536 26.9877 37.3051C29.3437 36.3306 31.4844 34.9024 33.2876 33.1017C35.0907 31.3011 36.5212 29.1635 37.497 26.8109Z" fill="#1A1919"/>
<path d="M0.138306 19.3904C0.138306 21.9369 0.640579 24.4584 1.61644 26.811C2.59232 29.1636 4.02266 31.3012 5.82584 33.1019C7.62898 34.9024 9.76967 36.3307 12.1257 37.3052C14.4816 38.2797 17.0067 38.7812 19.5568 38.7812C22.1068 38.7812 24.6319 38.2797 26.9879 37.3052C29.3438 36.3307 31.4845 34.9024 33.2877 33.1019C35.0909 31.3012 36.5211 29.1636 37.497 26.811C38.4729 24.4584 38.9753 21.9369 38.9753 19.3904H32.9069C30.8961 19.3904 29.3278 21.0731 28.5913 22.9415C28.5703 22.9947 28.5488 23.0477 28.5269 23.1007C28.039 24.277 27.3238 25.3459 26.4222 26.2461C25.5206 27.1464 24.4503 27.8606 23.2723 28.3479C22.0944 28.8351 20.8318 29.0859 19.5568 29.0859C18.2817 29.0859 17.0192 28.8351 15.8412 28.3479C14.6632 27.8606 13.593 27.1464 12.6912 26.2461C11.7897 25.3459 11.0745 24.277 10.5866 23.1007C10.0986 21.9244 9.84756 20.6636 9.84756 19.3904H0.138306Z" fill="#1A1919"/>
<path d="M0.139954 19.3909C0.139954 8.68157 8.83387 0 19.5583 0C21.2374 0 22.8668 0.212808 24.4209 0.612904C21.0862 1.47071 18.0101 3.20669 15.5338 5.67946C11.8921 9.31593 9.84624 14.2481 9.84624 19.3909H0.139954Z" fill="#1A1919"/>
</g>
</g>
<defs>
<clipPath id="clip0_29_212">
<rect width="201" height="40" fill="white"/>
</clipPath>
</defs>
</svg>
