<svg width="25" height="22" viewBox="0 0 25 22" fill="none" xmlns="http://www.w3.org/2000/svg">
<path d="M0.5354 5.84509L1.67484 7.21539C1.67484 7.21539 3.81908 5.34401 4.32665 6.5916C4.83422 7.83919 8.24218 18.4437 8.24218 18.4437C8.24218 18.4437 9.25734 21.3173 11.5259 21.3173C13.5872 21.3173 15.2964 19.4254 16.6223 18.096C20.196 14.5271 23.9044 10.1196 24.588 4.96564C24.8988 2.62385 23.7283 0.159343 21.0868 0.0877596C19.7298 0.0468549 18.3315 0.455901 17.2231 1.21264C15.69 2.26593 14.8199 3.95325 14.4366 5.72237C14.4366 5.72237 16.4565 4.35207 17.4717 5.9678C18.0828 6.94951 17.6581 8.20733 17.1816 9.15836C16.7259 10.0685 16.2079 10.9582 15.6486 11.8172C15.2549 12.4205 14.6438 13.4534 13.8048 13.4534C12.7896 13.4534 12.4374 11.0093 12.2924 10.3446C11.7537 8.00281 11.7745 5.56898 11.0597 3.2681C10.635 1.88756 9.71311 -0.249704 7.86928 0.2207C3.95374 1.22286 0.5354 5.84509 0.5354 5.84509Z" fill="#1A1919"/>
</svg>
