<svg width="56" height="56" viewBox="0 0 56 56" fill="none" xmlns="http://www.w3.org/2000/svg">
<path d="M9.33331 37.3334H46.6666V11.6667H9.33331V37.3334ZM30.3334 42V46.6666H39.6666V51.3334H16.3334V46.6666H25.6666V42H6.98131C6.67492 41.9982 6.37189 41.9359 6.08961 41.8167C5.80731 41.6976 5.55132 41.5239 5.3363 41.3056C5.12127 41.0873 4.95142 40.8288 4.83651 40.5447C4.7216 40.2606 4.66388 39.9567 4.66665 39.6504V9.34966C4.66665 8.05234 5.72831 7 6.98131 7H49.0186C50.2972 7 51.3332 8.04766 51.3332 9.34966V39.6504C51.3332 40.9476 50.2716 42 49.0186 42H30.3334Z" fill="#1A1919"/>
</svg>
