<svg width="56" height="56" viewBox="0 0 56 56" fill="none" xmlns="http://www.w3.org/2000/svg">
<g clip-path="url(#clip0_53_202)">
<path d="M36.1712 46.6667C34.6276 50.3588 31.6921 53.2943 28 54.8381C24.3079 53.2943 21.3722 50.3588 19.8286 46.6667H25.102C25.8626 47.8077 26.845 48.7947 28 49.5671C29.155 48.7971 30.1372 47.8077 30.9002 46.6667H36.1712ZM42 34.5451L46.6666 39.8371V44.3333H9.33325V39.8371L13.9999 34.5451V21C13.9999 12.873 19.8426 5.95702 28 3.39502C36.1572 5.95702 42 12.873 42 21V34.5451ZM40.2966 39.6667L37.3332 36.3067V21C37.3332 15.5913 33.67 10.6634 28 8.35336C22.33 10.6634 18.6666 15.5889 18.6666 21V36.3067L15.7032 39.6667H40.2966ZM28 25.6667C26.7622 25.6667 25.5753 25.175 24.7 24.2999C23.8249 23.4247 23.3332 22.2377 23.3332 21C23.3332 19.7624 23.8249 18.5753 24.7 17.7001C25.5753 16.825 26.7622 16.3333 28 16.3333C29.2376 16.3333 30.4246 16.825 31.2998 17.7001C32.1749 18.5753 32.6666 19.7624 32.6666 21C32.6666 22.2377 32.1749 23.4247 31.2998 24.2999C30.4246 25.175 29.2376 25.6667 28 25.6667Z" fill="#1A1919"/>
</g>
<defs>
<clipPath id="clip0_53_202">
<rect width="56" height="56" fill="#1A1919"/>
</clipPath>
</defs>
</svg>
